<svg xmlns="http://www.w3.org/2000/svg" xmlns:xlink="http://www.w3.org/1999/xlink" fill="none" version="1.1" width="20" height="20" viewBox="0 0 20 20"><g transform="matrix(1,0,0,-1,0,40)"><g><path d="M0.546875,21.91406Q0,22.46094,0,23.24219Q0,23.98438,0.546875,24.57031L15.4297,39.4531Q16.0156,40,16.7578,40Q17.5,40,18.0859,39.4531L19.4531,38.085899999999995Q20,37.539100000000005,20,36.7578Q20,36.0156,19.4531,35.4297L4.57031,20.546875Q3.98438,20,3.24219,20Q2.46094,20,1.91406,20.546875L0.546875,21.91406ZM13.5938,32.6562L17.6953,36.7578L13.5938,32.6562L17.6953,36.7578L16.7578,37.6953L12.6562,33.5938L13.5938,32.6562Z" fill="#A855F7" fill-opacity="1" style="mix-blend-mode:passthrough"/></g></g></svg>