<svg xmlns="http://www.w3.org/2000/svg" xmlns:xlink="http://www.w3.org/1999/xlink" fill="none" version="1.1" width="25" height="20" viewBox="0 0 25 20"><g transform="matrix(1,0,0,-1,0,40)"><g><path d="M12.5,40Q13.0469,40,13.3984,39.648399999999995Q13.75,39.2969,13.75,38.75L13.75,30.625Q13.7891,30.039099999999998,14.375,30Q14.9609,30.039099999999998,15,30.625L15,37.5Q15,38.0469,15.3516,38.398399999999995Q15.7031,38.75,16.25,38.75Q16.7969,38.75,17.1484,38.398399999999995Q17.5,38.0469,17.5,37.5L17.5,30.625Q17.5391,30.039099999999998,18.125,30Q18.7109,30.039099999999998,18.75,30.625L18.75,35Q18.75,35.5469,19.1016,35.8984Q19.4531,36.25,20,36.25Q20.5469,36.25,20.8984,35.8984Q21.25,35.5469,21.25,35L21.25,27.38281Q20.5078,27.07031,20.2734,26.28906L19.9219,25.07812L18.7109,24.72656Q17.5781,24.33594,17.5,23.125Q17.5781,21.91406,18.7109,21.52344Q16.875,20.0390625,14.375,20L13.6328,20Q10,20.0390625,7.38281,22.5L2.96875,26.67969Q2.5,27.14844,2.5,27.77344Q2.5,28.39844,2.92969,28.90625Q3.39844,29.375,4.02344,29.375Q4.64844,29.375,5.15625,28.94531L7.5,26.67969Q7.5,26.75781,7.5,26.79688Q7.5,26.83594,7.5,26.875L7.5,37.5Q7.5,38.0469,7.85156,38.398399999999995Q8.20312,38.75,8.75,38.75Q9.29688,38.75,9.64844,38.398399999999995Q10,38.0469,10,37.5L10,30.625Q10.0391,30.039099999999998,10.625,30Q11.2109,30.039099999999998,11.25,30.625L11.25,38.75Q11.25,39.2969,11.6016,39.648399999999995Q11.9531,40,12.5,40ZM12.2266,27.22656Q12.1484,27.5,11.875,27.5Q11.6016,27.5,11.5234,27.22656L11.25,26.25L10.2734,25.97656Q10,25.89844,10,25.625Q10,25.35156,10.2734,25.27344L11.25,25L11.5234,24.02344Q11.6016,23.75,11.875,23.75Q12.1484,23.75,12.2266,24.02344L12.5,25L13.4766,25.27344Q13.75,25.35156,13.75,25.625Q13.75,25.89844,13.4766,25.97656L12.5,26.25L12.2266,27.22656ZM4.0625,35.3125L5.9375,34.7656L4.0625,35.3125L5.9375,34.7656Q6.25,34.6875,6.25,34.375Q6.25,34.0625,5.9375,33.9844L4.0625,33.4375L3.51562,31.5625Q3.4375,31.25,3.125,31.25Q2.8125,31.25,2.73438,31.5625L2.1875,33.4375L0.3125,33.9844Q0,34.0625,0,34.375Q0,34.6875,0.3125,34.7656L2.1875,35.3125L2.73438,37.1875Q2.8125,37.5,3.125,37.5Q3.4375,37.5,3.51562,37.1875L4.0625,35.3125ZM22.8125,24.0625L24.6875,23.51562L22.8125,24.0625L24.6875,23.51562Q25,23.4375,25,23.125Q25,22.8125,24.6875,22.73438L22.8125,22.1875L22.2656,20.3125Q22.1875,20,21.875,20Q21.5625,20,21.4844,20.3125L20.9375,22.1875L19.0625,22.73438Q18.75,22.8125,18.75,23.125Q18.75,23.4375,19.0625,23.51562L20.9375,24.0625L21.4844,25.9375Q21.5625,26.25,21.875,26.25Q22.1875,26.25,22.2656,25.9375L22.8125,24.0625Z" fill="#3B82F6" fill-opacity="1" style="mix-blend-mode:passthrough"/></g></g></svg>