<svg xmlns="http://www.w3.org/2000/svg" xmlns:xlink="http://www.w3.org/1999/xlink" fill="none" version="1.1" width="22.5" height="17.5" viewBox="0 0 22.5 17.5"><g transform="matrix(1,0,0,-1,0,35)"><path d="M7.14844,27.07031Q9.14062,25.82031,10.5078,23.90625Q10.8984,23.32031,11.25,22.69531Q11.6016,23.32031,11.9922,23.90625Q13.3594,25.82031,15.3516,27.07031Q18.0078,28.710900000000002,21.3281,28.75L21.7188,28.75Q22.4219,28.6719,22.5,27.9688Q22.4609,25.03906,21.0547,22.69531Q19.6875,20.3125,17.3047,18.94531Q14.9609,17.5390625,12.0312,17.5L11.25,17.5L10.4688,17.5Q7.53906,17.5390625,5.19531,18.94531Q2.8125,20.3125,1.44531,22.69531Q0.0390625,25.03906,0,27.9688Q0.078125,28.6719,0.78125,28.75L1.17188,28.75Q4.49219,28.710900000000002,7.14844,27.07031ZM11.7969,34.7656Q12.3047,34.2969,13.3203,32.6953Q14.3359,31.0547,15.0781,28.3594Q12.8125,27.07031,11.25,25Q9.6875,27.07031,7.42188,28.3594Q8.16406,31.0547,9.17969,32.6953Q10.1953,34.2969,10.7422,34.7656Q10.9375,35,11.25,35Q11.5625,35,11.7969,34.7656Z" fill="#22C55E" fill-opacity="1" style="mix-blend-mode:passthrough"/></g></svg>