<svg xmlns="http://www.w3.org/2000/svg" xmlns:xlink="http://www.w3.org/1999/xlink" fill="none" version="1.1" width="19.70703125" height="20" viewBox="0 0 19.70703125 20"><g transform="matrix(1,0,0,-1,0,40)"><path d="M10,32.5L8.47656,34.0234L10,32.5L8.47656,34.0234Q8.75,34.7656,8.75,35.625Q8.71094,37.5,7.46094,38.710899999999995Q6.25,39.960899999999995,4.375,40Q2.5,39.960899999999995,1.28906,38.710899999999995Q0.0390625,37.5,0,35.625Q0.0390625,33.75,1.28906,32.5391Q2.5,31.289099999999998,4.375,31.25Q5.23438,31.25,5.97656,31.523400000000002L7.5,30L5.97656,28.4375Q5.23438,28.75,4.375,28.75Q2.5,28.71094,1.28906,27.46094Q0.0390625,26.25,0,24.375Q0.0390625,22.5,1.28906,21.28906Q2.5,20.0390625,4.375,20Q6.25,20.0390625,7.46094,21.28906Q8.71094,22.5,8.75,24.375Q8.75,25.23438,8.47656,25.9375L19.4922,36.9922Q19.9219,37.5,19.4922,38.0078Q18.6328,38.8281,17.5,38.8281Q16.3672,38.8281,15.5078,38.0078L10,32.5ZM10.8984,26.60156L15.5078,21.99219L10.8984,26.60156L15.5078,21.99219Q16.3672,21.17188,17.5,21.17188Q18.6328,21.17188,19.4922,21.99219Q19.9219,22.5,19.4922,23.00781L13.3984,29.10156L10.8984,26.60156ZM2.5,35.625Q2.53906,36.6797,3.4375,37.2656Q4.375,37.7344,5.3125,37.2656Q6.21094,36.6797,6.25,35.625Q6.21094,34.5703,5.3125,33.9844Q4.375,33.5156,3.4375,33.9844Q2.53906,34.5703,2.5,35.625ZM4.375,26.25Q5.42969,26.21094,6.01562,25.3125Q6.48438,24.375,6.01562,23.4375Q5.42969,22.53906,4.375,22.5Q3.32031,22.53906,2.73438,23.4375Q2.26562,24.375,2.73438,25.3125Q3.32031,26.21094,4.375,26.25Z" fill="#000000" fill-opacity="1" style="mix-blend-mode:passthrough"/></g></svg>